<?xml version="1.0" standalone="no"?>
<!DOCTYPE svg PUBLIC "-//W3C//DTD SVG 20010904//EN"
 "http://www.w3.org/TR/2001/REC-SVG-20010904/DTD/svg10.dtd">
<svg version="1.0" xmlns="http://www.w3.org/2000/svg"
 width="600.000000pt" height="600.000000pt" viewBox="0 0 600.000000 600.000000"
 preserveAspectRatio="xMidYMid meet">
<metadata>
Created by potrace 1.11, written by Peter Selinger 2001-2013
</metadata>
<g transform="translate(0.000000,600.000000) scale(0.100000,-0.100000)"
fill="#000000" stroke="none">
<path d="M910 5140 c0 -6 -135 -968 -300 -2137 -165 -1170 -300 -2135 -300
-2145 0 -17 21 -18 359 -18 l359 0 6 33 c3 17 55 385 116 817 61 432 113 795
115 808 l5 22 563 0 562 1 198 175 c108 96 197 180 197 187 0 7 58 442 129
967 l130 954 -52 61 c-29 33 -95 111 -147 173 l-95 111 -922 1 c-630 0 -923
-3 -923 -10z m1321 -733 l36 -42 -79 -530 -79 -530 -47 -42 -47 -42 -322 -1
c-252 0 -323 3 -323 13 -1 6 36 283 82 615 l83 602 330 0 331 0 35 -43z"/>
<path d="M3566 5118 c-3 -18 -138 -978 -301 -2133 -162 -1155 -298 -2110 -300
-2122 l-5 -23 363 0 364 0 119 838 119 837 566 5 565 5 192 170 c106 93 195
179 197 190 9 39 255 1875 255 1901 0 19 -38 70 -145 195 l-146 169 -918 0
-919 0 -6 -32z m1316 -705 c21 -20 38 -46 38 -58 0 -11 -34 -245 -75 -520 -41
-275 -75 -505 -75 -512 0 -6 -21 -32 -47 -57 l-48 -46 -327 0 -327 0 4 28 c7
33 165 1184 165 1194 0 5 147 8 327 8 l327 0 38 -37z"/>
</g>
</svg>
