<?xml version="1.0" standalone="no"?>
<!DOCTYPE svg PUBLIC "-//W3C//DTD SVG 20010904//EN"
 "http://www.w3.org/TR/2001/REC-SVG-20010904/DTD/svg10.dtd">
<svg version="1.0" xmlns="http://www.w3.org/2000/svg"
 width="600.000000pt" height="600.000000pt" viewBox="0 0 600.000000 600.000000"
 preserveAspectRatio="xMidYMid meet">
<metadata>
Created by potrace 1.11, written by Peter Selinger 2001-2013
</metadata>
<g transform="translate(0.000000,600.000000) scale(0.100000,-0.100000)"
fill="#000000" stroke="none">
<path d="M914 5147 c-8 -23 -611 -4301 -607 -4309 2 -5 165 -8 362 -8 l359 0
6 33 c3 17 55 385 116 817 61 432 113 795 115 808 l5 22 556 0 556 0 156 138
c86 75 178 157 204 182 l48 45 130 964 130 964 -56 66 c-32 36 -100 117 -153
178 l-96 113 -913 0 c-752 0 -914 -2 -918 -13z m1317 -739 l35 -43 -79 -530
-79 -530 -46 -42 -47 -42 -322 -1 c-252 0 -323 3 -323 13 0 18 161 1190 165
1205 3 9 79 12 333 12 l328 0 35 -42z"/>
<path d="M3565 5128 c-3 -18 -138 -976 -300 -2128 -162 -1152 -297 -2112 -301
-2133 l-6 -37 361 0 c198 0 362 4 365 9 3 4 58 382 123 840 l118 831 557 0
557 0 203 179 203 179 131 968 131 968 -151 176 -152 175 -916 3 -917 2 -6
-32z m1320 -718 l38 -39 -79 -532 -79 -532 -45 -43 -45 -44 -326 0 -326 0 4
23 c8 49 163 1182 163 1194 0 10 65 13 328 13 l328 0 39 -40z"/>
</g>
</svg>
