<?xml version="1.0" standalone="no"?>
<!DOCTYPE svg PUBLIC "-//W3C//DTD SVG 20010904//EN"
 "http://www.w3.org/TR/2001/REC-SVG-20010904/DTD/svg10.dtd">
<svg version="1.0" xmlns="http://www.w3.org/2000/svg"
 width="600.000000pt" height="600.000000pt" viewBox="0 0 600.000000 600.000000"
 preserveAspectRatio="xMidYMid meet">
<metadata>
Created by potrace 1.11, written by Peter Selinger 2001-2013
</metadata>
<g transform="translate(0.000000,600.000000) scale(0.100000,-0.100000)"
fill="#000000" stroke="none">
<path d="M679 5385 c-5 -40 -8 -59 -18 -132 -7 -46 -13 -95 -15 -110 -6 -45
-18 -126 -22 -148 -3 -11 -7 -38 -9 -60 -11 -88 -16 -121 -20 -145 -2 -14 -7
-45 -10 -70 -4 -25 -8 -56 -10 -70 -2 -14 -6 -45 -10 -70 -7 -55 -15 -115 -21
-155 -11 -69 -13 -82 -18 -125 -3 -25 -8 -54 -10 -65 -2 -11 -7 -47 -10 -80
-8 -64 -15 -115 -21 -147 -3 -11 -7 -46 -10 -77 -4 -31 -8 -63 -10 -71 -2 -8
-6 -33 -9 -55 -3 -22 -17 -121 -32 -220 -14 -99 -27 -193 -29 -210 -2 -16 -13
-100 -25 -185 -12 -85 -24 -166 -26 -180 -7 -55 -17 -126 -19 -140 -5 -29 -15
-95 -20 -140 -3 -25 -8 -56 -10 -70 -2 -14 -7 -45 -10 -70 -6 -46 -8 -60 -20
-140 -4 -25 -8 -56 -10 -70 -2 -14 -6 -45 -10 -70 -8 -52 -10 -67 -25 -175 -6
-44 -13 -96 -16 -115 -3 -19 -7 -51 -10 -70 -2 -19 -6 -46 -9 -60 -2 -14 -7
-52 -10 -85 -4 -33 -8 -67 -10 -75 -2 -8 -7 -37 -10 -65 -4 -27 -8 -61 -10
-75 -4 -22 -36 -247 -51 -355 -3 -22 -8 -56 -10 -75 -3 -19 -7 -46 -9 -60 -2
-14 -7 -45 -11 -70 -4 -25 -7 -48 -6 -52 1 -4 -2 -29 -7 -55 -5 -26 -13 -75
-16 -108 -4 -33 -9 -67 -10 -75 -2 -9 -6 -41 -10 -73 -4 -31 -8 -60 -9 -64 0
-5 180 -8 401 -8 l401 0 7 41 c3 22 7 52 9 65 7 42 19 123 22 147 1 12 7 55
13 95 6 39 13 92 16 117 3 25 8 56 10 70 6 31 12 74 19 125 3 22 15 105 26
185 11 80 23 163 26 185 13 97 22 158 29 195 2 14 7 48 10 75 3 28 10 75 15
105 5 30 12 79 15 109 4 30 8 63 11 74 2 10 6 44 10 75 3 30 8 63 9 71 2 9 6
42 10 74 4 31 13 57 19 58 6 0 287 1 623 1 l613 0 219 194 c121 107 222 202
225 212 3 9 8 42 11 72 3 30 8 66 10 80 3 14 7 43 10 65 3 22 7 56 10 75 25
182 35 262 40 305 3 28 10 75 15 105 5 30 12 78 15 105 4 28 8 64 11 80 2 17
6 52 10 79 3 27 7 56 9 65 1 9 6 43 9 76 4 33 9 67 11 75 2 8 6 36 9 63 10 80
18 141 22 161 2 10 6 44 9 75 4 31 8 63 10 71 2 8 7 40 10 70 3 30 8 66 10 80
2 14 11 79 20 145 9 66 18 131 20 145 3 14 8 53 11 87 l7 62 -59 68 c-33 37
-61 70 -64 73 -3 3 -45 52 -95 110 -49 58 -96 112 -104 120 -13 13 -142 15
-1033 15 -673 0 -1018 -3 -1019 -10z m1464 -817 l39 -41 -7 -66 c-3 -36 -8
-73 -10 -81 -2 -8 -7 -35 -10 -60 -11 -78 -24 -168 -31 -203 -2 -10 -8 -51
-13 -90 -6 -40 -22 -146 -35 -237 -27 -177 -33 -219 -41 -277 -3 -21 -7 -49
-10 -63 -2 -14 -7 -43 -10 -65 -4 -32 -16 -50 -59 -91 l-54 -51 -359 0 -359 0
7 56 c15 118 20 157 26 186 3 16 7 45 9 64 2 19 5 48 8 65 3 17 8 54 11 81 3
28 10 75 15 105 5 30 12 79 15 109 4 30 8 61 10 70 1 9 6 43 10 76 4 32 8 66
10 75 1 8 6 38 9 65 4 28 9 61 11 75 2 14 8 59 14 100 20 141 23 165 26 180 2
8 4 25 4 38 l1 22 367 0 367 0 39 -42z"/>
<path d="M3635 5390 c-3 -5 -18 -100 -31 -195 -3 -22 -7 -49 -8 -60 -2 -11 -7
-47 -11 -80 -4 -33 -9 -67 -10 -76 -2 -9 -6 -40 -10 -69 -4 -29 -8 -60 -10
-69 -3 -17 -23 -153 -30 -206 -12 -92 -16 -122 -20 -145 -2 -14 -7 -43 -9 -65
-3 -22 -15 -105 -26 -185 -11 -80 -22 -158 -25 -175 -8 -65 -18 -131 -21 -150
-3 -11 -7 -38 -9 -60 -6 -45 -14 -107 -20 -145 -2 -14 -7 -50 -11 -80 -4 -30
-8 -57 -9 -60 -1 -3 -4 -32 -9 -65 -4 -33 -9 -71 -11 -85 -2 -14 -9 -61 -15
-105 -6 -44 -13 -91 -15 -105 -3 -14 -7 -45 -10 -70 -3 -25 -7 -54 -9 -66 -2
-12 -7 -45 -11 -75 -3 -30 -8 -61 -10 -69 -2 -8 -7 -40 -10 -70 -3 -30 -8 -66
-10 -80 -4 -32 -17 -111 -20 -130 -1 -8 -6 -40 -10 -70 -3 -30 -8 -66 -10 -80
-2 -14 -7 -45 -10 -70 -6 -47 -9 -65 -20 -140 -4 -25 -8 -56 -10 -70 -2 -14
-6 -43 -9 -65 -3 -22 -8 -60 -11 -85 -3 -25 -7 -52 -9 -60 -3 -8 -8 -42 -11
-75 -4 -32 -8 -62 -10 -65 -1 -3 -6 -36 -10 -75 -4 -38 -8 -72 -10 -75 -1 -3
-6 -30 -9 -61 -4 -31 -8 -66 -10 -76 -3 -11 -7 -44 -11 -74 -3 -30 -8 -65 -10
-79 -7 -40 -14 -82 -21 -135 -3 -27 -7 -57 -9 -65 -1 -8 -6 -44 -11 -80 -4
-36 -8 -67 -9 -70 -1 -3 -5 -30 -9 -60 -4 -30 -9 -66 -11 -80 -2 -14 -6 -45
-10 -70 -7 -57 -16 -119 -21 -145 -2 -11 -7 -45 -10 -75 l-5 -55 395 0 c250 0
398 4 404 10 6 6 13 39 16 74 4 36 8 67 10 70 2 3 7 33 10 66 10 84 13 107 30
213 9 52 15 97 14 100 -1 4 2 27 6 52 8 48 11 70 21 140 3 25 8 56 10 70 2 14
6 43 9 65 7 51 36 252 41 285 5 33 33 233 40 290 3 25 10 68 15 95 5 28 12 73
15 100 4 40 19 143 29 212 1 7 5 15 9 19 3 4 285 7 625 7 l619 0 55 51 c30 28
73 67 96 86 22 19 96 85 165 145 l124 110 8 60 c11 96 12 106 24 185 6 41 13
93 15 115 6 42 43 315 52 375 3 19 7 55 10 80 3 25 7 56 9 70 2 14 7 45 10 70
3 25 8 56 10 70 2 14 7 52 10 85 4 33 8 67 10 75 2 8 6 33 9 55 3 22 10 78 16
125 6 47 13 96 15 110 2 14 6 45 10 70 3 25 8 56 10 70 2 14 7 48 10 75 3 28
10 77 15 110 5 33 12 84 15 114 4 30 9 63 11 75 2 12 6 55 9 96 l6 75 -165
190 -165 190 -1016 0 c-559 0 -1018 -2 -1020 -5z m1464 -825 c44 -48 42 -36
21 -160 -5 -27 -12 -75 -16 -105 -3 -30 -7 -57 -9 -60 -2 -3 -6 -34 -10 -70
-4 -36 -8 -67 -10 -70 -2 -3 -6 -30 -10 -60 -4 -30 -8 -57 -10 -60 -1 -3 -6
-32 -9 -65 -4 -33 -11 -85 -16 -115 -5 -30 -12 -75 -15 -100 -3 -25 -10 -67
-15 -95 -5 -27 -11 -68 -14 -90 -11 -90 -28 -180 -34 -186 -4 -3 -27 -24 -51
-45 l-44 -39 -359 -1 -359 -1 6 63 c3 34 8 73 10 85 3 12 7 43 10 68 3 25 7
57 9 71 4 23 21 137 31 215 14 103 47 344 50 365 6 39 15 104 20 146 6 49 35
252 40 279 2 11 4 32 4 48 l1 27 369 0 368 0 42 -45z"/>
</g>
</svg>
