<?xml version="1.0" encoding="utf-8"?>
<!-- Generator: Adobe Illustrator 18.1.1, SVG Export Plug-In . SVG Version: 6.00 Build 0)  -->
<svg version="1.0" id="Layer_1" xmlns="http://www.w3.org/2000/svg" xmlns:xlink="http://www.w3.org/1999/xlink" x="0px" y="0px"
	 width="342px" height="40px" viewBox="0 0 342 40" enable-background="new 0 0 342 40" xml:space="preserve">
<g>
	<path fill="#FFFFFF" d="M0.3,39.8L6-0.2h17l2.8,3.3L23.3,21l-3.7,3.3H9.2L7,39.8H0.3z M16.1,17.8L17,17l1.5-9.9l-0.7-0.7h-6.1
		l-1.6,11.4H16.1z"/>
	<path fill="#FFFFFF" d="M25.1,39.8l5.6-40h19.2l-0.9,6.5H36.6l-1.4,9.9h9.3l-0.9,6.5h-9.3l-1.5,10.6h12.5l-0.9,6.5H25.1z"/>
	<path fill="#FFFFFF" d="M47.8,39.8l5.6-40h19.2l-0.9,6.5H59.2l-1.4,9.9h9.3l-0.9,6.5h-9.3l-1.5,10.6h12.5L67,39.8H47.8z"/>
	<path fill="#FFFFFF" d="M70.5,39.8l5.6-40h17.2l2.8,3.3L93.7,21L90,24.3l1,15.6h-6.5l-1.1-15.6h-4.1l-2.2,15.6H70.5z M86.7,17.8
		l0.8-0.8L89,7.1l-0.6-0.7h-6.5l-1.6,11.4H86.7z"/>
	<path fill="#FFFFFF" d="M108,39.8l5.6-40h17l2.8,3.3L131,21l-3.7,3.3h-10.4l-2.2,15.6H108z M123.8,17.8l0.9-0.8l1.5-9.9l-0.7-0.7
		h-6.1l-1.6,11.4H123.8z"/>
	<path fill="#FFFFFF" d="M132.8,39.8l5.6-40h17.2l2.8,3.3L156,21l-3.7,3.3l1,15.6h-6.5l-1.1-15.6h-4.1l-2.2,15.6H132.8z M148.9,17.8
		l0.8-0.8l1.5-9.9l-0.6-0.7h-6.5l-1.6,11.4H148.9z"/>
	<path fill="#FFFFFF" d="M158.2,39.8l5.6-40H183l-0.9,6.5h-12.5l-1.4,9.9h9.3l-0.9,6.5h-9.3l-1.5,10.6h12.5l-0.9,6.5H158.2z"/>
	<path fill="#FFFFFF" d="M197.5,11.4l0.6-4.2l-0.7-0.8h-5.1l-0.9,0.8l-1.3,8.3l0.7,0.8h9.4l2.8,3.3l-2.3,17.1l-3.7,3.3h-13.6
		l-2.8-3.3l1.1-8.3h6.7l-0.7,4.3l0.7,0.8h5.1l0.9-0.8l1.4-9.1l-0.7-0.8h-9.3l-2.8-3.3l2.2-16.4l3.7-3.3h13.6l2.8,3.3l-1.1,8.3H197.5
		z"/>
	<path fill="#FFFFFF" d="M221.7,11.4l0.6-4.2l-0.7-0.8h-5.1l-0.9,0.8l-1.3,8.3l0.7,0.8h9.4l2.8,3.3L225,36.6l-3.7,3.3h-13.6
		l-2.8-3.3l1.1-8.3h6.7l-0.7,4.3l0.7,0.8h5.1l0.9-0.8l1.4-9.1l-0.7-0.8h-9.3l-2.8-3.3l2.2-16.4l3.7-3.3h13.6l2.8,3.3l-1.1,8.3H221.7
		z"/>
	<path fill="#FFFFFF" d="M249.5,36.6l-3.7,3.3h-13.5l-2.8-3.3l5.1-36.7h6.7l-4.7,32.8l0.6,0.7h5.2l0.8-0.7l4.7-32.8h6.7L249.5,36.6z
		"/>
	<path fill="#FFFFFF" d="M254.1,39.8l5.6-40h17.2l2.8,3.3L277.3,21l-3.7,3.3l1,15.6h-6.5L267,24.3H263l-2.2,15.6H254.1z M270.2,17.8
		l0.8-0.8l1.5-9.9l-0.6-0.7h-6.5l-1.6,11.4H270.2z"/>
	<path fill="#FFFFFF" d="M279.3,39.8l5.6-40h19.2l-0.9,6.5h-12.5l-1.4,9.9h9.3l-0.9,6.5h-9.3l-1.5,10.6h12.5l-0.9,6.5H279.3z"/>
</g>
<g>
	<path fill="#FFFFFF" d="M308.6,37h-1.1l-1.3-5.9l-1.2,8.7h-2.1l1.8-12.8h2.7l1.2,6.1l3-6.1h2.7l-1.8,12.8h-2.1l1.2-8.7L308.6,37z"
		/>
	<path fill="#FFFFFF" d="M314.7,39.8l1.8-12.8h6.2l-0.3,2.1h-4l-0.5,3.2h3l-0.3,2.1h-3l-0.5,3.4h4l-0.3,2.1H314.7z"/>
	<path fill="#FFFFFF" d="M329.5,26.9l0.9,1L329,38.7l-1.2,1h-5.5l1.8-12.8H329.5z M326.6,37.7l0.3-0.3l1.2-8.2l-0.2-0.3H326
		l-1.2,8.7H326.6z"/>
	<path fill="#FFFFFF" d="M331,39.8l1.8-12.8h2.1l-1.8,12.8H331z"/>
	<path fill="#FFFFFF" d="M340,37h-2.6l-1,2.8h-2.2l4.9-12.8h2.1l1.2,12.8h-2.2L340,37z M339.9,34.9l-0.3-4.3l-1.5,4.3H339.9z"/>
</g>
</svg>
