<?xml version="1.0" encoding="UTF-8" standalone="no"?>
<svg width="855px" height="189px" viewBox="0 0 855 189" version="1.1" xmlns="http://www.w3.org/2000/svg" xmlns:xlink="http://www.w3.org/1999/xlink" xmlns:sketch="http://www.bohemiancoding.com/sketch/ns">
    <!-- Generator: Sketch 3.4.2 (15857) - http://www.bohemiancoding.com/sketch -->
    <title>Slice 1</title>
    <desc>Created with Sketch.</desc>
    <defs></defs>
    <g id="Page-1" stroke="none" stroke-width="1" fill="none" fill-rule="evenodd" sketch:type="MSPage">
        <g id="Peer-Pressure-Logo+For-Progress-White-Darker-Good-2" sketch:type="MSLayerGroup">
            <g id="Page-1" sketch:type="MSShapeGroup">
                <g id="Peer-Pressure-Logo_x2B_For-Progress-White">
                    <g id="Group" fill="#FFFFFF">
                        <path d="M0,100.5 L14.1,0.5 L56.5,0.5 L63.5,8.7 L57.4,53.4 L48.2,61.6 L22.3,61.6 L16.8,100.5 L0,100.5 L0,100.5 L0,100.5 L0,100.5 Z M39.6,45.4 L41.8,43.4 L45.5,18.7 L43.8,16.9 L28.5,16.9 L24.5,45.5 L39.6,45.4 L39.6,45.4 L39.6,45.4 L39.6,45.4 Z" id="Shape"></path>
                        <path d="M62,100.5 L76.1,0.5 L124,0.5 L121.8,16.7 L90.6,16.7 L87,41.6 L110.2,41.6 L108,57.8 L84.8,57.8 L81,84.4 L112.2,84.4 L110,100.6 L62,100.5 L62,100.5 L62,100.5 L62,100.5 L62,100.5 Z" id="Shape_1_"></path>
                        <path d="M118.7,100.5 L132.8,0.5 L180.7,0.5 L178.5,16.7 L147.3,16.7 L143.7,41.6 L166.9,41.6 L164.7,57.8 L141.5,57.8 L137.7,84.4 L168.9,84.4 L166.7,100.5 L118.7,100.5 L118.7,100.5 L118.7,100.5 Z" id="Shape_2_"></path>
                        <path d="M175.4,100.5 L189.5,0.5 L232.6,0.5 L239.6,8.7 L233.5,53.4 L224.1,61.6 L226.6,100.5 L210.4,100.5 L207.8,61.6 L197.7,61.6 L192.2,100.5 L175.4,100.5 L175.4,100.5 L175.4,100.5 L175.4,100.5 Z M215.8,45.4 L217.9,43.4 L221.6,18.7 L220,16.9 L203.8,16.9 L199.8,45.5 L215.8,45.4 L215.8,45.4 L215.8,45.4 L215.8,45.4 Z" id="Shape_3_"></path>
                        <path d="M269.1,100.5 L283.2,0.5 L325.7,0.5 L332.7,8.7 L326.6,53.4 L317.4,61.6 L291.5,61.6 L286,100.5 L269.1,100.5 L269.1,100.5 L269.1,100.5 L269.1,100.5 Z M308.7,45.4 L310.9,43.4 L314.6,18.7 L312.9,16.9 L297.6,16.9 L293.6,45.5 L308.7,45.4 L308.7,45.4 L308.7,45.4 L308.7,45.4 Z" id="Shape_4_"></path>
                        <path d="M331.1,100.5 L345.2,0.5 L388.3,0.5 L395.3,8.7 L389.2,53.4 L379.8,61.6 L382.3,100.5 L366.1,100.5 L363.5,61.6 L353.4,61.6 L347.9,100.5 L331.1,100.5 L331.1,100.5 L331.1,100.5 L331.1,100.5 Z M371.5,45.4 L373.6,43.4 L377.3,18.7 L375.7,16.9 L359.5,16.9 L355.5,45.5 L371.5,45.4 L371.5,45.4 L371.5,45.4 L371.5,45.4 Z" id="Shape_5_"></path>
                        <path d="M394.7,100.5 L408.8,0.5 L456.7,0.5 L454.5,16.7 L423.3,16.7 L419.7,41.6 L442.9,41.6 L440.7,57.8 L417.5,57.8 L413.7,84.4 L444.9,84.4 L442.7,100.6 L394.7,100.5 L394.7,100.5 L394.7,100.5 L394.7,100.5 Z" id="Shape_6_"></path>
                        <path d="M492.8,29.4 L494.4,18.9 L492.7,16.9 L479.9,16.9 L477.7,18.9 L474.5,39.7 L476.2,41.7 L499.7,41.7 L506.7,49.9 L501,92.5 L491.6,100.7 L457.6,100.7 L450.6,92.5 L453.4,71.8 L470.1,71.8 L468.4,82.5 L470.1,84.5 L482.9,84.5 L485.1,82.5 L488.7,59.9 L487,57.9 L463.7,57.9 L456.6,49.7 L462.1,8.7 L471.5,0.5 L505.5,0.5 L512.5,8.7 L509.7,29.4 L492.8,29.4 L492.8,29.4 L492.8,29.4 Z" id="Shape_7_"></path>
                        <path d="M553.5,29.4 L555.1,18.9 L553.4,16.9 L540.6,16.9 L538.4,18.9 L535.2,39.7 L536.9,41.7 L560.4,41.7 L567.4,49.9 L561.7,92.4 L552.3,100.6 L518.3,100.6 L511.3,92.4 L514.1,71.7 L530.8,71.7 L529.1,82.4 L530.8,84.4 L543.6,84.4 L545.8,82.4 L549.3,59.8 L547.6,57.8 L524.3,57.8 L517.2,49.6 L522.8,8.7 L532.2,0.5 L566.2,0.5 L573.2,8.7 L570.4,29.4 L553.5,29.4 L553.5,29.4 L553.5,29.4 Z" id="Shape_8_"></path>
                        <path d="M623,92.4 L613.6,100.6 L579.9,100.6 L572.9,92.4 L585.7,0.5 L602.4,0.5 L590.7,82.5 L592.3,84.3 L605.2,84.3 L607.3,82.5 L619,0.5 L635.7,0.5 L623,92.4 L623,92.4 L623,92.4 Z" id="Shape_9_"></path>
                        <path d="M634.4,100.5 L648.5,0.5 L691.6,0.5 L698.6,8.7 L692.6,53.4 L683.2,61.6 L685.7,100.5 L669.5,100.5 L666.9,61.6 L656.7,61.6 L651.2,100.5 L634.4,100.5 L634.4,100.5 L634.4,100.5 L634.4,100.5 Z M674.8,45.4 L676.9,43.4 L680.6,18.7 L679,16.9 L662.8,16.9 L658.9,45.5 L674.8,45.4 L674.8,45.4 L674.8,45.4 L674.8,45.4 Z" id="Shape_10_"></path>
                        <path d="M697.5,100.5 L711.6,0.5 L759.6,0.5 L757.3,16.7 L726.1,16.7 L722.6,41.6 L745.7,41.6 L743.5,57.8 L720.3,57.8 L716.5,84.4 L747.7,84.4 L745.4,100.6 L697.5,100.5 L697.5,100.5 L697.5,100.5 L697.5,100.5 L697.5,100.5 Z" id="Shape_11_"></path>
                    </g>
                    <g id="Group_1_" transform="translate(756.000000, 68.000000)" fill="#FFFFFF">
                        <path d="M14.6,25.5 L11.8,25.5 L8.7,10.7 L5.6,32.3 L0.2,32.3 L4.7,0.2 L11.3,0.2 L14.4,15.4 L21.9,0.2 L28.6,0.2 L24.1,32.3 L18.7,32.3 L21.8,10.7 L14.6,25.5 L14.6,25.5 L14.6,25.5 Z" id="Shape_12_"></path>
                        <path d="M30,32.3 L34.5,0.2 L49.9,0.2 L49.2,5.4 L39.2,5.4 L38.1,13.4 L45.5,13.4 L44.8,18.6 L37.4,18.6 L36.2,27.1 L46.2,27.1 L45.5,32.3 L30,32.3 L30,32.3 L30,32.3 L30,32.3 Z" id="Shape_13_"></path>
                        <path d="M67,0.3 L69.2,2.9 L65.6,29.7 L62.6,32.3 L49,32.3 L53.5,0.2 L67,0.3 L67,0.3 L67,0.3 L67,0.3 Z M59.8,27.1 L60.5,26.5 L63.5,6 L63,5.4 L58.2,5.4 L55.1,27.1 L59.8,27.1 L59.8,27.1 L59.8,27.1 L59.8,27.1 Z" id="Shape_14_"></path>
                        <path d="M70.7,32.3 L75.2,0.2 L80.6,0.2 L76.1,32.3 L70.7,32.3 L70.7,32.3 L70.7,32.3 Z" id="Shape_15_"></path>
                        <path d="M93.2,25.4 L86.6,25.4 L84.2,32.3 L78.6,32.3 L90.7,0.3 L95.9,0.3 L99,32.4 L93.6,32.4 L93.2,25.4 L93.2,25.4 L93.2,25.4 Z M92.9,20.2 L92.2,9.4 L88.4,20.2 L92.9,20.2 L92.9,20.2 L92.9,20.2 Z" id="Shape_16_"></path>
                    </g>
                    <g id="Group_2_" transform="translate(469.000000, 120.000000)" fill="#61B899">
                        <path d="M31.9,7.9 L19.7,7.9 L15.6,31.3 L26.5,31.3 L25.2,38.6 L14.3,38.6 L9.1,68.6 L0.7,68.6 L12.5,0.6 L33.1,0.6 L31.9,7.9 L31.9,7.9 L31.9,7.9 Z" id="Shape_17_"></path>
                        <path d="M55,63.2 L48.7,68.6 L34,68.6 L29.7,63.2 L39.6,5.9 L45.9,0.5 L60.6,0.5 L64.9,5.9 L55,63.2 L55,63.2 L55,63.2 Z M49.5,7.9 L47.4,9.7 L38.8,59.4 L40.2,61.2 L45,61.2 L47.1,59.4 L55.7,9.7 L54.3,7.9 L49.5,7.9 L49.5,7.9 L49.5,7.9 Z" id="Shape_18_"></path>
                        <path d="M75.8,0.5 L95.4,0.5 L99.7,5.9 L94.9,34.2 L89.3,38.9 L89.5,68.5 L81.3,68.5 L81.1,39.5 L77.5,39.5 L72.5,68.5 L64,68.5 L75.8,0.5 L75.8,0.5 L75.8,0.5 Z M86.9,30.8 L90.6,9.5 L89.2,7.7 L83,7.7 L78.7,32.6 L84.9,32.6 L86.9,30.8 L86.9,30.8 L86.9,30.8 Z" id="Shape_19_"></path>
                        <path d="M129.5,0.5 L148.7,0.5 L153,5.9 L147.8,36 L141.6,41.4 L130.9,41.4 L126.1,68.6 L117.7,68.6 L129.5,0.5 L129.5,0.5 L129.5,0.5 Z M139.9,32.4 L143.9,9.5 L142.5,7.7 L136.8,7.7 L132.2,34.2 L137.9,34.2 L139.9,32.4 L139.9,32.4 L139.9,32.4 Z" id="Shape_20_"></path>
                        <path d="M162.8,0.5 L182.4,0.5 L186.7,5.9 L181.9,34.2 L176.3,38.9 L176.5,68.5 L168.3,68.5 L168.1,39.5 L164.5,39.5 L159.5,68.5 L151,68.5 L162.8,0.5 L162.8,0.5 L162.8,0.5 Z M173.9,30.8 L177.6,9.5 L176.2,7.7 L170,7.7 L165.7,32.6 L171.9,32.6 L173.9,30.8 L173.9,30.8 L173.9,30.8 Z" id="Shape_21_"></path>
                        <path d="M211.9,63.2 L205.6,68.6 L190.9,68.6 L186.6,63.2 L196.5,5.9 L202.8,0.5 L217.5,0.5 L221.8,5.9 L211.9,63.2 L211.9,63.2 L211.9,63.2 Z M206.5,7.9 L204.4,9.7 L195.8,59.4 L197.2,61.2 L202,61.2 L204.1,59.4 L212.7,9.7 L211.3,7.9 L206.5,7.9 L206.5,7.9 L206.5,7.9 Z" id="Shape_22_"></path>
                        <path d="M231.5,5.9 L237.8,0.5 L251.6,0.5 L255.9,5.9 L253.4,20.3 L244.9,20.3 L246.8,9.7 L245.4,7.9 L241.4,7.9 L239.3,9.7 L230.7,59.4 L232.1,61.2 L236.1,61.2 L238.2,59.4 L241.5,40.8 L237.3,40.8 L238.6,33.1 L251.3,33.1 L246.1,63.2 L239.8,68.6 L226,68.6 L221.7,63.2 L231.5,5.9 L231.5,5.9 L231.5,5.9 Z" id="Shape_23_"></path>
                        <path d="M266.6,0.5 L286.2,0.5 L290.5,5.9 L285.7,34.2 L280.1,38.9 L280.3,68.5 L272.1,68.5 L271.9,39.5 L268.3,39.5 L263.3,68.5 L254.8,68.5 L266.6,0.5 L266.6,0.5 L266.6,0.5 Z M277.8,30.8 L281.5,9.5 L280.1,7.7 L273.9,7.7 L269.6,32.6 L275.8,32.6 L277.8,30.8 L277.8,30.8 L277.8,30.8 Z" id="Shape_24_"></path>
                        <path d="M301.9,0.5 L322.8,0.5 L321.6,7.8 L309.2,7.8 L305.2,30.3 L316,30.3 L314.8,37.6 L304,37.6 L299.9,61 L312.5,61 L311.3,68.3 L290.2,68.3 L301.9,0.5 L301.9,0.5 L301.9,0.5 Z" id="Shape_25_"></path>
                        <path d="M344,9.5 L342.6,7.7 L339.5,7.7 L337.4,9.5 L334.1,28.6 L335.5,30.4 L343.8,30.4 L348.2,35.8 L343.4,63.2 L337.1,68.6 L323.7,68.6 L319.4,63.2 L321.9,49 L330.4,49 L328.5,59.6 L329.9,61.4 L333.4,61.4 L335.5,59.6 L338.9,39.6 L337.5,37.8 L329.2,37.8 L324.8,32.4 L329.4,5.9 L335.7,0.5 L348.7,0.5 L353,5.9 L350.5,20.2 L342,20.2 L344,9.5 L344,9.5 L344,9.5 Z" id="Shape_26_"></path>
                        <path d="M376.6,9.5 L375.2,7.7 L372.1,7.7 L370,9.5 L366.7,28.6 L368.1,30.4 L376.4,30.4 L380.8,35.8 L376,63.2 L369.7,68.6 L356.3,68.6 L352,63.2 L354.5,49 L363,49 L361.1,59.6 L362.5,61.4 L366,61.4 L368.1,59.6 L371.5,39.6 L370.1,37.8 L361.8,37.8 L357.4,32.4 L362,5.9 L368.3,0.5 L381.3,0.5 L385.6,5.9 L383.1,20.2 L374.6,20.2 L376.6,9.5 L376.6,9.5 L376.6,9.5 Z" id="Shape_27_"></path>
                    </g>
                </g>
            </g>
        </g>
    </g>
</svg>