<svg version="1" xmlns="http://www.w3.org/2000/svg" width="855" height="188.5" viewBox="0 0 855 188.5"><g fill="#FFF"><path d="M.3 99.8L14.4-.2h42.4l7 8.2-6.1 44.7-9.2 8.2H22.6l-5.5 38.9H.3zm39.6-55.1l2.2-2L45.8 18l-1.7-1.8H28.8l-4 28.6h15.1zM62.3 99.8L76.4-.2h47.9L122.1 16H90.9l-3.6 24.9h23.2l-2.2 16.2H85.1l-3.8 26.6h31.2l-2.2 16.2h-48zM119 99.8l14.1-100H181L178.8 16h-31.2L144 40.9h23.2L165 57.1h-23.2L138 83.7h31.2L167 99.8h-48zM175.7 99.8l14.1-100h43.1l7 8.2-6.1 44.7-9.4 8.2 2.5 38.9h-16.2l-2.6-38.9H198l-5.5 38.9h-16.8zm40.4-55.1l2.1-2 3.7-24.7-1.6-1.8h-16.2l-4 28.6h16zM269.4 99.8l14.1-100H326l7 8.2-6.1 44.7-9.2 8.2h-25.9l-5.5 38.9h-16.9zM309 44.7l2.2-2 3.7-24.7-1.7-1.8h-15.3l-4 28.6H309zM331.4 99.8l14.1-100h43.1l7 8.2-6.1 44.7-9.4 8.2 2.5 38.9h-16.2l-2.6-38.9h-10.1l-5.5 38.9h-16.8zm40.4-55.1l2.1-2 3.7-24.7-1.6-1.8h-16.2l-4 28.6h16zM395 99.8l14.1-100H457L454.8 16h-31.2L420 40.9h23.2L441 57.1h-23.2L414 83.7h31.2L443 99.9h-48zM493.1 28.7l1.6-10.5-1.7-2h-12.8l-2.2 2-3.2 20.8 1.7 2H500l7 8.2-5.7 42.6-9.4 8.2h-34l-7-8.2 2.8-20.7h16.7l-1.7 10.7 1.7 2h12.8l2.2-2 3.6-22.6-1.7-2H464l-7.1-8.2 5.5-41 9.4-8.2h34l7 8.2-2.8 20.7h-16.9zM553.8 28.7l1.6-10.5-1.7-2h-12.8l-2.2 2-3.2 20.8 1.7 2h23.5l7 8.2-5.7 42.5-9.4 8.2h-34l-7-8.2 2.8-20.7h16.7l-1.7 10.7 1.7 2h12.8l2.2-2 3.5-22.6-1.7-2h-23.3l-7.1-8.2L523.1 8l9.4-8.2h34l7 8.2-2.8 20.7h-16.9zM623.3 91.7l-9.4 8.2h-33.7l-7-8.2L586-.2h16.7l-11.7 82 1.6 1.8h12.9l2.1-1.8 11.7-82H636l-12.7 91.9zM634.7 99.8l14.1-100h43.1l7 8.2-6 44.7-9.4 8.2 2.5 38.9h-16.2l-2.6-38.9H657l-5.5 38.9h-16.8zm40.4-55.1l2.1-2 3.7-24.7-1.6-1.8h-16.2l-3.9 28.6h15.9zM697.8 99.8l14.1-100h48L757.6 16h-31.2l-3.5 24.9H746l-2.2 16.2h-23.2l-3.8 26.6H748l-2.3 16.2h-47.9z"/></g><g fill="#FFF"><path d="M770.9 92.8h-2.8L765 78l-3.1 21.6h-5.4l4.5-32.1h6.6l3.1 15.2 7.5-15.2h6.7l-4.5 32.1H775l3.1-21.6-7.2 14.8zM786.3 99.6l4.5-32.1h15.4l-.7 5.2h-10l-1.1 8h7.4l-.7 5.2h-7.4l-1.2 8.5h10l-.7 5.2h-15.5zM823.3 67.6l2.2 2.6-3.6 26.8-3 2.6h-13.6l4.5-32.1h13.5zm-7.2 26.8l.7-.6 3-20.5-.5-.6h-4.8l-3.1 21.7h4.7zM827 99.6l4.5-32.1h5.4l-4.5 32.1H827zM849.5 92.7h-6.6l-2.4 6.9h-5.6l12.1-32h5.2l3.1 32.1h-5.4l-.4-7zm-.3-5.2l-.7-10.8-3.8 10.8h4.5z"/></g><g fill="#83C1AA"><path d="M501.2 127.2H489l-4.1 23.4h10.9l-1.3 7.3h-10.9l-5.2 30H470l11.8-68h20.6l-1.2 7.3zM524.3 182.5l-6.3 5.4h-14.7l-4.3-5.4 9.9-57.3 6.3-5.4h14.7l4.3 5.4-9.9 57.3zm-5.5-55.3l-2.1 1.8-8.6 49.7 1.4 1.8h4.8l2.1-1.8L525 129l-1.4-1.8h-4.8zM545.1 119.8h19.6l4.3 5.4-4.8 28.3-5.6 4.7.2 29.6h-8.2l-.2-29h-3.6l-5 29h-8.5l11.8-68zm11.1 30.3l3.7-21.3-1.4-1.8h-6.2l-4.3 24.9h6.2l2-1.8zM598.8 119.8H618l4.3 5.4-5.2 30.1-6.2 5.4h-10.7l-4.8 27.2H587l11.8-68.1zm10.4 31.9l4-22.9-1.4-1.8h-5.7l-4.6 26.5h5.7l2-1.8zM632.1 119.8h19.6l4.3 5.4-4.8 28.3-5.6 4.7.2 29.6h-8.2l-.2-29h-3.6l-5 29h-8.5l11.8-68zm11.1 30.3l3.7-21.3-1.4-1.8h-6.2l-4.3 24.9h6.2l2-1.8zM681.2 182.5l-6.3 5.4h-14.7l-4.3-5.4 9.9-57.3 6.3-5.4h14.7l4.3 5.4-9.9 57.3zm-5.4-55.3l-2.1 1.8-8.6 49.7 1.4 1.8h4.8l2.1-1.8L682 129l-1.4-1.8h-4.8zM700.8 125.2l6.3-5.4h13.8l4.3 5.4-2.5 14.4h-8.5l1.9-10.6-1.4-1.8h-4l-2.1 1.8-8.6 49.7 1.4 1.8h4l2.1-1.8 3.3-18.6h-4.2l1.3-7.7h12.7l-5.2 30.1-6.3 5.4h-13.8l-4.3-5.4 9.8-57.3zM735.9 119.8h19.6l4.3 5.4-4.8 28.3-5.6 4.7.2 29.6h-8.2l-.2-29h-3.6l-5 29h-8.5l11.8-68zm11.2 30.3l3.7-21.3-1.4-1.8h-6.2l-4.3 24.9h6.2l2-1.8zM771.2 119.8h20.9l-1.2 7.3h-12.4l-4 22.5h10.8l-1.2 7.3h-10.8l-4.1 23.4h12.6l-1.2 7.3h-21.1l11.7-67.8zM813.3 128.8l-1.4-1.8h-3.1l-2.1 1.8-3.3 19.1 1.4 1.8h8.3l4.4 5.4-4.8 27.4-6.3 5.4H793l-4.3-5.4 2.5-14.2h8.5l-1.9 10.6 1.4 1.8h3.5l2.1-1.8 3.4-20-1.4-1.8h-8.3l-4.4-5.4 4.6-26.5 6.3-5.4h13l4.3 5.4-2.5 14.3h-8.5l2-10.7zM845.9 128.8l-1.4-1.8h-3.1l-2.1 1.8-3.3 19.1 1.4 1.8h8.3l4.4 5.4-4.8 27.4-6.3 5.4h-13.4l-4.3-5.4 2.5-14.2h8.5l-1.9 10.6 1.4 1.8h3.5l2.1-1.8 3.4-20-1.4-1.8h-8.3l-4.4-5.4 4.6-26.5 6.3-5.4h13l4.3 5.4-2.5 14.3h-8.5l2-10.7z"/></g></svg>